PathFileType	4	(X/Y/Z)	pose2sim_150-449.trc
DataRate	CameraRate	NumFrames	NumMarkers	Units	OrigDataRate	OrigDataStartFrame	OrigNumFrames
50	50	7	22	m	50	225	300
Frame#	Time	Hip			RHip			RKnee			RAnkle			RBigToe			RSmallToe			RHeel			LHip			LKnee			LAnkle			LBigToe			LSmallToe			LHeel			Neck			Head			Nose			RShoulder			RElbow			RWrist			LShoulder			LElbow			LWrist			
		X1	Y1	Z1	X2	Y2	Z2	X3	Y3	Z3	X4	Y4	Z4	X5	Y5	Z5	X6	Y6	Z6	X7	Y7	Z7	X8	Y8	Z8	X9	Y9	Z9	X10	Y10	Z10	X11	Y11	Z11	X12	Y12	Z12	X13	Y13	Z13	X14	Y14	Z14	X15	Y15	Z15	X16	Y16	Z16	X17	Y17	Z17	X18	Y18	Z18	X19	Y19	Z19	X20	Y20	Z20	X21	Y21	Z21	X22	Y22	Z22	
225	4.5	0.13578453301624543	0.9735177027804858	-0.04591888884504865	0.032999344285959784	0.9597240401878668	-0.03863486253549445	0.016739072402869887	0.5153006256305571	-0.06462043058140501	0.001179956027151465	0.09061587954870085	-0.09999026153623881	0.014769096109726218	0.03412781305818161	0.09497647896016218	-0.03851001156100915	0.036942946993391235	0.0571711567803375	0.006047668770929666	0.0464356913494458	-0.13638323883537598	0.24021996305704083	0.9560464153374909	-0.05074510311821227	0.24220276434847215	0.5135976902169486	-0.10079839989874592	0.24458851491083136	0.08484772092968661	-0.11371427114853319	0.2760253485140249	0.0341476764247764	0.06652601220947975	0.31893826696779903	0.03540397166392355	0.012615515536544908	0.23254613252214607	0.03959486536524748	-0.14845270118480816	0.15660771349260094	1.5797173118226426	-0.061883774067111735	0.159050262107161	1.827032240066525	-0.023398537929702763	0.14258247383055853	1.699113892918758	0.089718781163836	-0.005026547128758011	1.4731507046854884	-0.052720284854720655	-0.07102152994003504	1.2017087249186158	0.0091991589696537	-0.15881084963543465	0.9807914245275563	0.11735525658706082	0.32189916751963105	1.464262877742372	-0.08903300478805931	0.36846210504070104	1.1896547563286235	-0.04066837383266618	0.441456630733645	0.9572967067601416	0.016842239099218184
226	4.52	0.1359596630712696	0.9777353862381204	-0.042400478431525106	0.03319186721820322	0.9604441011447449	-0.0291869724698668	0.014816381219967527	0.5143789792773934	-0.06449835925743592	0.0027109960144315287	0.09051690845214382	-0.09010400552430117	0.011055677328044942	0.048018502487264636	0.10628279327927183	-0.0383718369893747	0.04159551239489085	0.05745816080524244	0.014401542922104115	0.04436430460692332	-0.12316095576820421	0.23841588500932284	0.9567643334115062	-0.04242438266873478	0.2405771705613003	0.5120326797313249	-0.10009912891188223	0.2446755807725243	0.08760914198950236	-0.11244575245525741	0.28102237110640993	0.04194544617171914	0.0744032833632093	0.31954388918980775	0.03754919368471547	0.016904914581544972	0.23293221555185725	0.04427729675636503	-0.13833923862889233	0.15703477400288277	1.5769935399969395	-0.05882527402439929	0.1611523479763004	1.8265739506568932	-0.020467462158022975	0.14950015412702233	1.693831262161866	0.09775503885026562	-0.008080369264529975	1.4707190804928176	-0.05363295804043435	-0.06904647974518874	1.1949600287568973	0.013333825987660093	-0.15988765240014471	0.973538969815873	0.11375577107658039	0.32213880295439523	1.4622889922588693	-0.08032299996498142	0.367202202060448	1.186117594127652	-0.04219699303938282	0.4345259711439698	0.953136849833083	0.006058141306338561
227	4.54	0.13560798992523415	0.9743568671122316	-0.03818292518153222	0.0344788631639496	0.9615718535289396	-0.034557076032038045	0.014447067898544913	0.5158616173111781	-0.06642447429733216	0.002283309517925261	0.08926518246188561	-0.09809156552949308	0.01349901377794156	0.03690327789076724	0.0869944717263607	-0.040354594989841966	0.036784216534402815	0.051068881949615785	0.006865177927626106	0.04533430378977132	-0.13911832864020918	0.24064371450359795	0.9570764965162143	-0.05232601049505402	0.24132372206472993	0.5127364190313857	-0.10024136804873593	0.24362050292667609	0.08501623651863413	-0.1121998743371913	0.2726306908679775	0.037244619033840375	0.06641914334262979	0.31579869440320174	0.0383832080678034	0.008244213954474323	0.236078147843158	0.039728486926051056	-0.1451202108400797	0.1576431489876046	1.579959939890248	-0.055330189753304906	0.15857036385475287	1.8267268819420013	-0.0204980060475469	0.149146519045375	1.7004002802177622	0.11169363697955181	-0.002532830126940334	1.473621013855289	-0.0506197444284861	-0.06896361063131894	1.1972075529775297	0.005339110517873982	-0.1544808859634239	0.972207660374244	0.1016726002418463	0.32353451804709255	1.4633918545457822	-0.08577164748291156	0.3654434280599375	1.1854702546145688	-0.046157979883891566	0.4333405537986698	0.9509591809607771	-0.003992568327819726
228	4.56	0.13649231656459443	0.9742373345544352	-0.03860367918771123	0.03679047790958792	0.96150768246621	-0.03184203030781616	0.01520325027667424	0.5163566272910485	-0.06877790630503947	0.002921835351434658	0.09121517358794436	-0.0991283374437554	0.006566564463811956	0.03665816590582122	0.09000150990351738	-0.04166431595626094	0.03768286591190473	0.05129463111071603	0.007492118523341464	0.04569986746850987	-0.13756718994642833	0.24208536043117804	0.9570294677160074	-0.0484281321785878	0.24230320988501575	0.5130505149217855	-0.10321594966702363	0.24634061969145254	0.08419487222869995	-0.11460298833766494	0.2776594130085095	0.03322287016374182	0.0694165454691047	0.31719416833663533	0.03871910438815885	0.00965795942414157	0.23421494270524743	0.04193668526771139	-0.1500470855530286	0.15865915723166332	1.5775628118480094	-0.05128517690516097	0.15833876582449713	1.827735247046903	-0.013561235801842215	0.1522551643972136	1.6987042296921406	0.11376634052168882	-0.00026368184368672713	1.4723537599359773	-0.04918605734707158	-0.06725936089310773	1.1951201511216043	-0.0017976130352781708	-0.15071064776163254	0.9654420982692566	0.09494761657795207	0.32072681503773703	1.464801000555048	-0.08492091183007792	0.3654758846521122	1.1854336506876852	-0.04529599196406971	0.43277333960584946	0.9480072633172896	-0.010934456804121466
229	4.58	0.13690349890173806	0.9748403675775472	-0.04135586854505885	0.03432182804979809	0.962502477283544	-0.03580052379440851	0.01428022079848064	0.517028982794496	-0.06766679132239482	0.002428341615857638	0.0902253444631108	-0.09462413236218863	0.0078769583808611	0.0358084912253635	0.1020859145341567	-0.04056998046082206	0.03820906111909303	0.056211360713772036	0.00700546521024631	0.04163919742983053	-0.13253763464413146	0.24296419420258475	0.9593880848693485	-0.05297336205566051	0.24019103874196635	0.5122412727407274	-0.10302228999766164	0.2450117193392088	0.08476788670353723	-0.11083245548945195	0.2740227509232362	0.03543623338230376	0.06615097615070381	0.31367475284224683	0.039526985955407254	0.012734171464860607	0.23415309508714985	0.03936145363293876	-0.14310235896699033	0.1579654304636406	1.5783499777029697	-0.0496184989106073	0.1592539116751643	1.8271220649134194	-0.008256333082233695	0.15311053384515996	1.7010829107301282	0.11181960269074502	-0.0005829071991337919	1.4716465184496883	-0.041359375909338386	-0.06455836974994235	1.19583475800581	0.004580881238132772	-0.1459960754194802	0.9660836832353973	0.08637150709522644	0.3235277696026734	1.4642433522998288	-0.07669966614492904	0.36407690996675723	1.1833329081009085	-0.057157776504194964	0.43316249775216187	0.945765961094533	-0.01885598306825629
230	4.6	0.1365495882396978	0.9781737906844512	-0.03481182800504437	0.03389615923524906	0.9651860676341099	-0.02814493590259953	0.013155586946655933	0.5160902309166246	-0.06541908387810574	0.0004436428115935988	0.09420840724690252	-0.09424925663774497	0.008639885523957242	0.04914970496179591	0.10929669344622589	-0.03604242348156714	0.042619085628864885	0.0575173164115046	0.012952525931102412	0.0496840199461647	-0.12730250489302236	0.23637045244247618	0.9580585511073921	-0.04030531881410044	0.24021921921940606	0.509495487652563	-0.09381224055518118	0.24480370652613756	0.08787833160905927	-0.1136258491065483	0.2796770875375666	0.04448294970718374	0.0755723973178003	0.3177921831217819	0.0424228827406997	0.01798060361734093	0.23219000754653965	0.04225903081073707	-0.15036039213422464	0.15733628070128272	1.5771533381703122	-0.05005314660787107	0.16433476067027517	1.8265826931342322	-0.006643020261625596	0.14793383132994373	1.6953447166375917	0.11482616609204917	-0.007316896597877	1.4723834035579657	-0.046293508933872664	-0.06442072218797197	1.193171229229522	0.0023872583632386533	-0.14922385952226508	0.9579383837981604	0.08267590346788597	0.32232355400314433	1.4649772182371081	-0.07863061528775091	0.3650722113756353	1.1865073007713327	-0.05890947502017935	0.4276830869790561	0.9468643999112271	-0.02439921145196491
231	4.62	0.13782708335895952	0.9776965449633342	-0.03836878640176091	0.03553562864161812	0.9638619245955188	-0.027145809539046935	0.015376462329158833	0.517101907583353	-0.06619390975746588	0.00499612409186218	0.09039480419650385	-0.09428628706287709	0.0048472380151789105	0.03718787553629203	0.10028454425549774	-0.044047681124328976	0.03671960425782591	0.05453965759075679	0.009356055298352255	0.04199492158302691	-0.1320189985168477	0.2402251707165238	0.9607059379240827	-0.04853689907017769	0.24004503819117762	0.5136174833108424	-0.10483290059629617	0.24608846275459534	0.08622036292098781	-0.11095203744521738	0.27423602026616656	0.03674274189412722	0.07181890934485792	0.31507800019546117	0.03939663164475637	0.010748223743482221	0.23528215493819735	0.04131762261424974	-0.1473631152006118	0.15874286703303475	1.5802786397894966	-0.04684323974576793	0.1601169525592028	1.8258252454100283	-0.00504930653050409	0.15162785847918395	1.6963207982166666	0.12059681290374405	-0.0011866768723153805	1.47289709771426	-0.0424181365168664	-0.0635064941794604	1.1951017925522622	-0.001422278707346304	-0.1437719674617015	0.9611188363615667	0.0665023887032928	0.3231359178648107	1.4640521715737262	-0.07994119727150971	0.3639163602045408	1.1857420399924663	-0.060944165829647554	0.4307493255067628	0.946065417478198	-0.031079042332796236
